<?xml version="1.0" standalone="no"?><!DOCTYPE svg PUBLIC "-//W3C//DTD SVG 1.1//EN" "http://www.w3.org/Graphics/SVG/1.1/DTD/svg11.dtd"><svg t="1559109368640" class="icon" style="" viewBox="0 0 1024 1024" version="1.1" xmlns="http://www.w3.org/2000/svg" p-id="1169" xmlns:xlink="http://www.w3.org/1999/xlink" width="32" height="32"><defs><style type="text/css"></style></defs><path d="M921.6 230.4h-153.6v-128c0-12.8-12.8-25.6-25.6-25.6h-460.8c-12.8 0-25.6 12.8-25.6 25.6v128h-153.6c-12.8 0-25.6 12.8-25.6 25.6v512c0 12.8 12.8 25.6 25.6 25.6h153.6v128c0 12.8 12.8 25.6 25.6 25.6h460.8c12.8 0 25.6-12.8 25.6-25.6v-128h153.6c12.8 0 25.6-12.8 25.6-25.6v-512c0-12.8-12.8-25.6-25.6-25.6z m-614.4-102.4h409.6v102.4h-409.6v-102.4z m-51.2 614.4h-128v-102.4h128v102.4z m460.8 0v153.6h-409.6v-256h409.6v102.4z m179.2 0h-128v-102.4h128v102.4z m0-153.6h-768v-307.2h768v307.2z" p-id="1170" fill="#bfbfbf"></path><path d="M665.6 409.6h-460.8c-12.8 0-25.6 12.8-25.6 25.6s12.8 25.6 25.6 25.6h460.8c12.8 0 25.6-12.8 25.6-25.6s-12.8-25.6-25.6-25.6zM384 742.4h256c12.8 0 25.6-12.8 25.6-25.6s-12.8-25.6-25.6-25.6h-256c-12.8 0-25.6 12.8-25.6 25.6s12.8 25.6 25.6 25.6zM384 844.8h256c12.8 0 25.6-12.8 25.6-25.6s-12.8-25.6-25.6-25.6h-256c-12.8 0-25.6 12.8-25.6 25.6s12.8 25.6 25.6 25.6z" p-id="1171" fill="#bfbfbf"></path><path d="M793.6 435.2m-51.2 0a51.2 51.2 0 1 0 102.4 0 51.2 51.2 0 1 0-102.4 0Z" p-id="1172" fill="#bfbfbf"></path></svg>